# xmcd
#
# Track frame offsets: 
#        150
#        13650
#        27764
#        41956
#        59122
#        72185
#        85706
#        99269
#        114503
#        130489
#        145732
#        160392
#        173145
#        190854
#        210072
#        222995
#        235601
#        249185
#        262728
#        278684
#        292660
#
# Disc length: 4072 seconds
#
# Revision: 0
# Processed by: cddbd v1.5.2PL0 Copyright (c) Steve Scherf et al.
# Submitted via: ExactAudioCopy v0.99pb4
#
DISCID=1c0fe615
DTITLE=Límite I - Límite
DYEAR=2006
DGENRE=Grupera
TTITLE0=01 - Yo Sin Tu Amor
TTITLE1=02 - Te Aprovechas
TTITLE2=03 - Me Duele Tanto
TTITLE3=04 - Junto A Ti
TTITLE4=05 - Mírame
TTITLE5=06 - Un Beso
TTITLE6=07 - Esta Vez
TTITLE7=08 - Si Quieres Saber
TTITLE8=09 - Sólo Contigo
TTITLE9=10 - Ay Amor
TTITLE10=11 - Quiero
TTITLE11=12 - Atrévete
TTITLE12=13 - Adorable Ladrón
TTITLE13=14 - La Otra Parte Del Amor
TTITLE14=15 - Tu Oportunidad
TTITLE15=16 - Lástima
TTITLE16=17 - Ya No Insistas
TTITLE17=18 - Una Carta Más
TTITLE18=19 - Se Acabó
TTITLE19=20 - Hasta Mañana
TTITLE20=21 - Por Encima De Todo
EXTD=
EXTT0=
EXTT1=
EXTT2=
EXTT3=
EXTT4=
EXTT5=
EXTT6=
EXTT7=
EXTT8=
EXTT9=
EXTT10=
EXTT11=
EXTT12=
EXTT13=
EXTT14=
EXTT15=
EXTT16=
EXTT17=
EXTT18=
EXTT19=
EXTT20=
PLAYORDER=
